# xmcd
#
# Track frame offsets: 
#        150
#        17188
#        39348
#        60458
#        82273
#        96413
#        114018
#        132965
#        156395
#        171853
#        204085
#        225010
#
# Disc length: 3275 seconds
#
# Revision: 0
# Processed by: cddbd v1.5.2PL0 Copyright (c) Steve Scherf et al.
# Submitted via: ExactAudioCopy v1.3
#
DISCID=8d0cc90c
DTITLE=Billy Branch - Satisfy Me
DYEAR=1999
DGENRE=Harmonica Blues
TTITLE0=It's A Crazy Mixed Up Word
TTITLE1=Pay Or Stay
TTITLE2=Kissing My Love
TTITLE3=Hey Baby (You're Looking Real Good)
TTITLE4=Satisfy Me
TTITLE5=Highway Blues
TTITLE6=One Chance With You
TTITLE7=Heart In Your Life
TTITLE8=Son Of Juke
TTITLE9=Same Thing
TTITLE10=Boogie Man
TTITLE11=Goin' Down
EXTD=
EXTT0=
EXTT1=
EXTT2=
EXTT3=
EXTT4=
EXTT5=
EXTT6=
EXTT7=
EXTT8=
EXTT9=
EXTT10=
EXTT11=
PLAYORDER=
